<?xml version="1.0" encoding="utf-8"?>
<!-- Svg Vector Icons : http://www.onlinewebfonts.com/icon -->
<!DOCTYPE svg PUBLIC "-//W3C//DTD SVG 1.1//EN" "http://www.w3.org/Graphics/SVG/1.1/DTD/svg11.dtd">
<svg version="1.1" xmlns="http://www.w3.org/2000/svg" xmlns:xlink="http://www.w3.org/1999/xlink" x="0px" y="0px" viewBox="0 0 1024 1024" width="38" height="38" fill="currentColor">
<!-- <svg version="1.1" xmlns="http://www.w3.org/2000/svg" xmlns:xlink="http://www.w3.org/1999/xlink" x="0px" y="0px" viewBox="0 0 1000 1000" enable-background="new 0 0 1000 1000" xml:space="preserve"> -->
<metadata> Svg Vector Icons : http://www.onlinewebfonts.com/icon </metadata>
<g><path d="M500,10C230.5,10,10,230.5,10,500s220.5,490,490,490s490-220.5,490-490S769.5,10,500,10z M500,928.8C261.1,928.8,71.3,738.9,71.3,500S261.1,71.3,500,71.3S928.8,261.1,928.8,500S738.9,928.8,500,928.8z"/><path d="M782.3,307.1H217.7c-29.2,0-52.9,23.8-52.9,52.9v317.6c0,29.2,23.8,52.9,52.9,52.9h564.7c29.2,0,52.9-23.8,52.9-52.9V360C835.3,330.8,811.5,307.1,782.3,307.1L782.3,307.1z M760.7,357c1.1,0,2,0.1,3.1,0.3l-244.2,147c-10.2,6.8-28.9,6.8-39.1,0l-243.2-147c1-0.2,2-0.3,3.1-0.3L760.7,357L760.7,357L760.7,357z M766.7,679.7H233.3c-9.7,0-17.6-7.9-17.6-17.6V392.9l245.2,156.3c11,7.3,25.1,11,39.1,11c14.1,0,28.2-3.7,39.1-11l245.3-156.3V662C784.4,671.8,776.5,679.7,766.7,679.7L766.7,679.7z"/></g>
</svg>